# xmcd CD database file
#
# Track frame offsets:
#	183
#	10935
#	24423
#	37110
#	56630
#	68128
#	79223
#	90530
#	109293
#	122993
#	135155
#	154305
#	171948
#	188010
#	202690
#	214638
#	223338
#
# Disc length: 3144 seconds
#
# Revision: 1
# Processed by: cddbd v1.5.2PL0 Copyright (c) Steve Scherf et al.
# Submitted via: CDex 1.51
#
DISCID=ed0c4611
DTITLE=Louis Jordan And The Tymphany Five - Live Jive
DYEAR=1989
DGENRE=Jump Blues
TTITLE0=Choo Choo Ch' Boogie
TTITLE1=Five Guys Named Moe
TTITLE2=Buzz Me
TTITLE3=Knock Me A Kiss
TTITLE4=On The Sunny Side Of The Street
TTITLE5=All For The Love Of Lil
TTITLE6=Safe, Sane And Single
TTITLE7=Broke But Happy
TTITLE8=Texas And Pacific (The T.P. Special)
TTITLE9=Let The Good Times Roll
TTITLE10=The Drippy Drippers
TTITLE11=I Like 'Em Fat Like That
TTITLE12=Don't Let The Sun Catch You Crying
TTITLE13=How Long Must I Wait For You
TTITLE14=Daddy-O
TTITLE15=Jumping At The Jubilee
TTITLE16=Baby That's Alright For You (Married Woman Blues)
EXTD=YEAR: 1989
EXTT0=
EXTT1=
EXTT2=
EXTT3=
EXTT4=
EXTT5=
EXTT6=
EXTT7=
EXTT8=
EXTT9=
EXTT10=
EXTT11=
EXTT12=
EXTT13=
EXTT14=
EXTT15=
EXTT16=
PLAYORDER=
